<!-- Generated by IcoMoon.io -->
<svg version="1.1" xmlns="http://www.w3.org/2000/svg" width="132" height="32" viewBox="0 0 132 32">
<title>button</title>
<path fill="#4d5ae5" d="M3.2 0h125.6c1.767 0 3.2 1.433 3.2 3.2v25.6c0 1.767-1.433 3.2-3.2 3.2h-125.6c-1.767 0-3.2-1.433-3.2-3.2v-25.6c0-1.767 1.433-3.2 3.2-3.2z"></path>
<path fill="#fff" d="M25.064 17.656c0-0.188-0.029-0.354-0.088-0.5-0.054-0.146-0.152-0.279-0.294-0.4s-0.342-0.238-0.6-0.35c-0.254-0.117-0.579-0.235-0.975-0.356-0.433-0.133-0.833-0.281-1.2-0.444-0.362-0.167-0.679-0.358-0.95-0.575-0.271-0.221-0.481-0.473-0.631-0.756-0.15-0.288-0.225-0.619-0.225-0.994 0-0.371 0.077-0.708 0.231-1.013 0.158-0.304 0.381-0.567 0.669-0.787 0.292-0.225 0.635-0.398 1.031-0.519 0.396-0.125 0.833-0.187 1.312-0.187 0.675 0 1.256 0.125 1.744 0.375 0.492 0.25 0.869 0.585 1.131 1.006 0.267 0.421 0.4 0.885 0.4 1.394h-1.556c0-0.3-0.065-0.565-0.194-0.794-0.125-0.233-0.317-0.417-0.575-0.55-0.254-0.133-0.577-0.2-0.969-0.2-0.371 0-0.679 0.056-0.925 0.169s-0.429 0.265-0.55 0.456c-0.121 0.192-0.181 0.408-0.181 0.65 0 0.171 0.040 0.327 0.119 0.469 0.079 0.138 0.2 0.267 0.362 0.388 0.162 0.117 0.367 0.227 0.612 0.331s0.535 0.204 0.869 0.3c0.504 0.15 0.944 0.317 1.319 0.5 0.375 0.179 0.688 0.383 0.938 0.613s0.437 0.49 0.562 0.781c0.125 0.288 0.188 0.615 0.188 0.981 0 0.383-0.077 0.729-0.231 1.038-0.154 0.304-0.375 0.565-0.662 0.781-0.283 0.213-0.625 0.377-1.025 0.494-0.396 0.112-0.837 0.169-1.325 0.169-0.438 0-0.869-0.058-1.294-0.175-0.421-0.117-0.804-0.294-1.15-0.531-0.346-0.242-0.621-0.542-0.825-0.9-0.204-0.362-0.306-0.785-0.306-1.269h1.569c0 0.296 0.050 0.548 0.15 0.756 0.104 0.208 0.248 0.379 0.431 0.512 0.183 0.129 0.396 0.225 0.638 0.288 0.246 0.062 0.508 0.094 0.788 0.094 0.367 0 0.673-0.052 0.919-0.156 0.25-0.104 0.438-0.25 0.562-0.438s0.188-0.404 0.188-0.65zM32.458 18.406v-5.169h1.512v6.762h-1.425l-0.088-1.594zM32.67 17l0.506-0.012c0 0.454-0.050 0.873-0.15 1.256-0.1 0.379-0.254 0.71-0.462 0.994-0.208 0.279-0.475 0.498-0.8 0.656-0.325 0.154-0.715 0.231-1.169 0.231-0.329 0-0.631-0.048-0.906-0.144s-0.512-0.244-0.712-0.444c-0.196-0.2-0.348-0.46-0.456-0.781s-0.162-0.704-0.162-1.15v-4.369h1.506v4.381c0 0.246 0.029 0.452 0.088 0.619 0.058 0.162 0.137 0.294 0.237 0.394s0.217 0.171 0.35 0.212c0.133 0.042 0.275 0.062 0.425 0.062 0.429 0 0.767-0.083 1.012-0.25 0.25-0.171 0.427-0.4 0.531-0.688 0.108-0.287 0.162-0.61 0.162-0.969zM36.032 10.4h1.506v8.156l-0.144 1.444h-1.362v-9.6zM41.951 16.556v0.131c0 0.5-0.056 0.96-0.169 1.381-0.108 0.417-0.275 0.779-0.5 1.088-0.221 0.308-0.496 0.548-0.825 0.719-0.325 0.167-0.702 0.25-1.131 0.25-0.421 0-0.788-0.079-1.1-0.237s-0.575-0.383-0.788-0.675c-0.208-0.292-0.377-0.64-0.506-1.044s-0.221-0.85-0.275-1.337v-0.419c0.054-0.492 0.146-0.937 0.275-1.337 0.129-0.404 0.298-0.752 0.506-1.044 0.212-0.296 0.473-0.523 0.781-0.681 0.312-0.158 0.677-0.238 1.094-0.238 0.433 0 0.815 0.083 1.144 0.25 0.333 0.167 0.61 0.404 0.831 0.713 0.221 0.304 0.385 0.667 0.494 1.087 0.112 0.421 0.169 0.885 0.169 1.394zM40.445 16.688v-0.131c0-0.304-0.025-0.59-0.075-0.856-0.050-0.271-0.133-0.508-0.25-0.712-0.112-0.204-0.267-0.365-0.462-0.481-0.192-0.121-0.431-0.181-0.719-0.181-0.267 0-0.496 0.046-0.688 0.138s-0.352 0.217-0.481 0.375c-0.129 0.158-0.231 0.342-0.306 0.55-0.071 0.208-0.119 0.433-0.144 0.675v1.131c0.038 0.312 0.117 0.6 0.238 0.862 0.125 0.258 0.3 0.467 0.525 0.625 0.225 0.154 0.515 0.231 0.869 0.231 0.279 0 0.515-0.056 0.706-0.169s0.344-0.269 0.456-0.469c0.117-0.204 0.2-0.442 0.25-0.713 0.054-0.271 0.081-0.562 0.081-0.875zM47.532 18.169c0-0.15-0.038-0.285-0.112-0.406-0.075-0.125-0.219-0.238-0.431-0.338-0.208-0.1-0.517-0.192-0.925-0.275-0.358-0.079-0.687-0.173-0.987-0.281-0.296-0.112-0.55-0.248-0.763-0.406s-0.377-0.346-0.494-0.562c-0.117-0.217-0.175-0.467-0.175-0.75 0-0.275 0.060-0.535 0.181-0.781s0.294-0.462 0.519-0.65c0.225-0.187 0.498-0.335 0.819-0.444 0.325-0.108 0.688-0.163 1.088-0.163 0.567 0 1.052 0.096 1.456 0.288 0.408 0.188 0.721 0.444 0.938 0.769 0.217 0.321 0.325 0.683 0.325 1.088h-1.506c0-0.179-0.046-0.346-0.137-0.5-0.088-0.158-0.221-0.285-0.4-0.381-0.179-0.1-0.404-0.15-0.675-0.15-0.258 0-0.473 0.042-0.644 0.125-0.167 0.079-0.292 0.183-0.375 0.312-0.079 0.129-0.119 0.271-0.119 0.425 0 0.112 0.021 0.215 0.063 0.306 0.046 0.088 0.121 0.169 0.225 0.244 0.104 0.071 0.246 0.138 0.425 0.2 0.183 0.062 0.412 0.123 0.687 0.181 0.517 0.108 0.96 0.248 1.331 0.419 0.375 0.167 0.662 0.383 0.862 0.65 0.2 0.262 0.3 0.596 0.3 1 0 0.3-0.065 0.575-0.194 0.825-0.125 0.246-0.308 0.46-0.55 0.644-0.242 0.179-0.531 0.319-0.869 0.419-0.333 0.1-0.708 0.15-1.125 0.15-0.613 0-1.131-0.108-1.556-0.325-0.425-0.221-0.748-0.502-0.969-0.844-0.217-0.346-0.325-0.704-0.325-1.075h1.456c0.017 0.279 0.094 0.502 0.231 0.669 0.142 0.162 0.317 0.281 0.525 0.356 0.212 0.071 0.431 0.106 0.656 0.106 0.271 0 0.498-0.035 0.681-0.106 0.183-0.075 0.323-0.175 0.419-0.3 0.096-0.129 0.144-0.275 0.144-0.438zM53.6 18.925c0.246 0 0.467-0.048 0.662-0.144 0.2-0.1 0.36-0.238 0.481-0.413 0.125-0.175 0.194-0.377 0.206-0.606h1.419c-0.008 0.438-0.137 0.835-0.387 1.194s-0.581 0.644-0.994 0.856c-0.412 0.208-0.869 0.312-1.369 0.312-0.517 0-0.967-0.087-1.35-0.262-0.383-0.179-0.702-0.425-0.956-0.738s-0.446-0.673-0.575-1.081c-0.125-0.408-0.188-0.846-0.188-1.312v-0.219c0-0.467 0.062-0.904 0.188-1.312 0.129-0.412 0.321-0.775 0.575-1.088s0.573-0.556 0.956-0.731c0.383-0.179 0.831-0.269 1.344-0.269 0.542 0 1.017 0.108 1.425 0.325 0.408 0.212 0.729 0.51 0.962 0.894 0.238 0.379 0.36 0.821 0.369 1.325h-1.419c-0.012-0.25-0.075-0.475-0.188-0.675-0.108-0.204-0.262-0.367-0.462-0.488-0.196-0.121-0.431-0.181-0.706-0.181-0.304 0-0.556 0.063-0.756 0.188-0.2 0.121-0.356 0.288-0.469 0.5-0.112 0.208-0.194 0.444-0.244 0.706-0.046 0.258-0.069 0.527-0.069 0.806v0.219c0 0.279 0.023 0.55 0.069 0.812s0.125 0.498 0.238 0.706c0.117 0.204 0.275 0.369 0.475 0.494 0.2 0.121 0.454 0.181 0.762 0.181zM59.55 14.525v5.475h-1.506v-6.762h1.437l0.069 1.287zM61.618 13.194l-0.012 1.4c-0.092-0.017-0.192-0.029-0.3-0.038-0.104-0.008-0.208-0.012-0.312-0.012-0.258 0-0.485 0.038-0.681 0.112-0.196 0.071-0.36 0.175-0.494 0.312-0.129 0.133-0.229 0.296-0.3 0.488s-0.112 0.406-0.125 0.644l-0.344 0.025c0-0.425 0.042-0.819 0.125-1.181s0.208-0.681 0.375-0.956c0.171-0.275 0.383-0.49 0.637-0.644 0.258-0.154 0.556-0.231 0.894-0.231 0.092 0 0.19 0.008 0.294 0.025 0.108 0.017 0.19 0.035 0.244 0.056zM64.686 13.238v6.762h-1.512v-6.762h1.512zM63.074 11.462c0-0.229 0.075-0.419 0.225-0.569 0.154-0.154 0.367-0.231 0.638-0.231 0.267 0 0.477 0.077 0.631 0.231 0.154 0.15 0.231 0.34 0.231 0.569 0 0.225-0.077 0.413-0.231 0.562s-0.365 0.225-0.631 0.225c-0.271 0-0.483-0.075-0.638-0.225-0.15-0.15-0.225-0.337-0.225-0.562zM66.855 10.4h1.506v8.156l-0.144 1.444h-1.363v-9.6zM72.774 16.556v0.131c0 0.5-0.056 0.96-0.169 1.381-0.108 0.417-0.275 0.779-0.5 1.088-0.221 0.308-0.496 0.548-0.825 0.719-0.325 0.167-0.702 0.25-1.131 0.25-0.421 0-0.788-0.079-1.1-0.237s-0.575-0.383-0.788-0.675c-0.208-0.292-0.377-0.64-0.506-1.044s-0.221-0.85-0.275-1.337v-0.419c0.054-0.492 0.146-0.937 0.275-1.337 0.129-0.404 0.298-0.752 0.506-1.044 0.213-0.296 0.473-0.523 0.781-0.681 0.312-0.158 0.677-0.238 1.094-0.238 0.433 0 0.815 0.083 1.144 0.25 0.333 0.167 0.61 0.404 0.831 0.713 0.221 0.304 0.385 0.667 0.494 1.087 0.113 0.421 0.169 0.885 0.169 1.394zM71.267 16.688v-0.131c0-0.304-0.025-0.59-0.075-0.856-0.050-0.271-0.133-0.508-0.25-0.712-0.112-0.204-0.267-0.365-0.462-0.481-0.192-0.121-0.431-0.181-0.719-0.181-0.267 0-0.496 0.046-0.687 0.138s-0.352 0.217-0.481 0.375c-0.129 0.158-0.231 0.342-0.306 0.55-0.071 0.208-0.119 0.433-0.144 0.675v1.131c0.038 0.312 0.117 0.6 0.238 0.862 0.125 0.258 0.3 0.467 0.525 0.625 0.225 0.154 0.515 0.231 0.869 0.231 0.279 0 0.515-0.056 0.706-0.169s0.344-0.269 0.456-0.469c0.117-0.204 0.2-0.442 0.25-0.713 0.054-0.271 0.081-0.562 0.081-0.875zM77.542 20.125c-0.5 0-0.952-0.081-1.356-0.244-0.4-0.167-0.742-0.398-1.025-0.694-0.279-0.296-0.494-0.644-0.644-1.044s-0.225-0.831-0.225-1.294v-0.25c0-0.529 0.077-1.008 0.231-1.438s0.369-0.796 0.644-1.1c0.275-0.308 0.6-0.544 0.975-0.706s0.781-0.244 1.219-0.244c0.483 0 0.906 0.081 1.269 0.244s0.662 0.392 0.9 0.688c0.242 0.292 0.421 0.64 0.537 1.044 0.121 0.404 0.182 0.85 0.182 1.337v0.644h-5.225v-1.081h3.738v-0.119c-0.008-0.271-0.062-0.525-0.162-0.762-0.096-0.238-0.244-0.429-0.444-0.575s-0.467-0.219-0.8-0.219c-0.25 0-0.473 0.054-0.669 0.163-0.192 0.104-0.352 0.256-0.481 0.456s-0.229 0.442-0.3 0.725c-0.067 0.279-0.1 0.594-0.1 0.944v0.25c0 0.296 0.040 0.571 0.119 0.825 0.083 0.25 0.204 0.469 0.363 0.656s0.35 0.335 0.575 0.444c0.225 0.104 0.481 0.156 0.769 0.156 0.362 0 0.685-0.073 0.969-0.219s0.529-0.352 0.738-0.619l0.794 0.769c-0.146 0.213-0.336 0.417-0.569 0.613-0.233 0.192-0.519 0.348-0.856 0.469-0.333 0.121-0.721 0.181-1.162 0.181z"></path>
<path fill="#fff" d="M112.8 8l-19.2 9 6.136 1.894 9.464-7.394-7.198 8.093 0.006 0.002-0.007-0.002v4.407l3.441-3.345 4.359 1.345 3-14z"></path>
</svg>
